<?xml version="1.0" encoding="UTF-8" standalone="no"?><!DOCTYPE svg PUBLIC "-//W3C//DTD SVG 1.1//EN" "http://www.w3.org/Graphics/SVG/1.1/DTD/svg11.dtd"><svg width="100%" height="100%" viewBox="0 0 32 32" version="1.1" xmlns="http://www.w3.org/2000/svg" xmlns:xlink="http://www.w3.org/1999/xlink" xml:space="preserve" xmlns:serif="http://www.serif.com/" style="fill-rule:evenodd;clip-rule:evenodd;stroke-linejoin:round;stroke-miterlimit:2;"><g><path d="M0,0.638l0,30.724c0,0.352 0.286,0.638 0.638,0.638l30.604,0c0.352,0 0.638,-0.286 0.638,-0.638l0,-30.724c0,-0.352 -0.286,-0.638 -0.638,-0.638l-30.604,0c-0.352,0 -0.638,0.286 -0.638,0.638Z" style="fill:#181818;"/></g><g><g><g><path d="M16.264,16.571c0,0.213 -0.021,0.447 -0.064,0.724c-0.043,0.277 -0.106,0.554 -0.17,0.852c-0.085,0.319 -0.17,0.618 -0.256,0.937c-0.085,0.319 -0.192,0.639 -0.298,0.916c-0.106,0.298 -0.213,0.575 -0.319,0.83c-0.106,0.256 -0.213,0.468 -0.298,0.639c-0.043,0.064 -0.106,0.149 -0.192,0.213c-0.085,0.064 -0.192,0.149 -0.277,0.234c-0.085,0.085 -0.17,0.149 -0.234,0.234c-0.064,0.064 -0.106,0.149 -0.106,0.213c-0.064,0 -0.149,0.021 -0.256,0.043c-0.128,0.021 -0.234,0.064 -0.362,0.106c-0.128,0.021 -0.256,0.064 -0.362,0.106c-0.106,0.064 -0.17,0.106 -0.192,0.149c-0.085,0.128 -0.128,0.234 -0.149,0.277c0,0.064 -0.021,0.085 -0.043,0.085c-0.021,0.021 -0.064,0.021 -0.128,0.021c-0.064,0 -0.17,0 -0.341,0.043c-0.064,0.021 -0.128,0.043 -0.234,0.064c-0.085,0.021 -0.192,0.064 -0.277,0.085c-0.106,0.021 -0.213,0.043 -0.298,0.064c-0.085,0.021 -0.17,0.021 -0.213,0.021c-0.149,0 -0.298,-0.021 -0.447,-0.064c-0.149,-0.043 -0.298,-0.085 -0.447,-0.085c-0.085,0 -0.17,0.021 -0.256,0.043c-0.256,0.106 -0.49,0.17 -0.724,0.213c-0.234,0.043 -0.49,0.064 -0.767,0.064l-1.469,-0.192c-0.106,0.021 -0.213,0.043 -0.341,0.064l-0.319,0c-0.149,0 -0.277,0 -0.426,-0.021c-0.128,0 -0.256,-0.021 -0.405,-0.043c-0.021,-0.106 -0.043,-0.213 -0.106,-0.298c-0.043,-0.085 -0.085,-0.192 -0.128,-0.298c-0.043,-0.085 -0.064,-0.192 -0.106,-0.277c-0.043,-0.106 -0.043,-0.213 -0.043,-0.319c0,-0.17 0.043,-0.298 0.128,-0.383c0.085,-0.085 0.213,-0.128 0.341,-0.17c0.149,-0.021 0.277,-0.064 0.447,-0.064c0.149,-0.021 0.298,-0.064 0.447,-0.128c0.128,-0.064 0.234,-0.149 0.341,-0.298c0.085,-0.128 0.128,-0.319 0.128,-0.575c0,-0.17 -0.021,-0.319 -0.043,-0.49c-0.021,-0.149 -0.128,-0.809 -0.17,-0.958c-0.021,-0.17 -0.021,-0.319 -0.021,-0.49c0,-0.106 0,-0.234 0.021,-0.341c0.021,-0.128 0.043,-0.234 0.043,-0.362c0,-0.213 -0.021,-0.426 -0.064,-0.639c-0.021,-0.192 -0.043,-0.426 -0.043,-0.639c0,-0.234 0.021,-0.49 0.043,-0.745c0.043,-0.234 0.043,-0.49 0.043,-0.724c0,-0.234 -0.021,-0.468 -0.064,-0.703c-0.043,-0.213 -0.064,-0.447 -0.064,-0.703c0,-0.128 0.021,-0.66 0.021,-0.788c0,-0.149 0,-0.298 -0.021,-0.447c-0.021,-0.128 -0.043,-0.277 -0.085,-0.426c-0.043,-0.17 -0.085,-0.341 -0.085,-0.511c0,-0.17 -0.021,-0.319 -0.064,-0.447c-0.043,-0.128 -0.106,-0.256 -0.192,-0.362c-0.106,-0.085 -0.256,-0.17 -0.49,-0.213c-0.085,-0.021 -0.128,-0.043 -0.17,-0.064c-0.043,-0.043 -0.085,-0.064 -0.106,-0.106c-0.043,-0.021 -0.085,-0.064 -0.128,-0.085c-0.064,-0.021 -0.149,-0.043 -0.234,-0.064c-0.319,-0.043 -0.468,-0.213 -0.468,-0.511c0,-0.17 0.043,-0.319 0.106,-0.447c0.043,-0.128 0.128,-0.234 0.234,-0.341c0.085,-0.106 0.192,-0.192 0.319,-0.277c0.128,-0.085 0.234,-0.192 0.362,-0.277c0.17,-0.128 0.341,-0.213 0.511,-0.256c0.149,-0.021 0.319,-0.043 0.511,-0.043l0.447,0c0.192,0 0.405,0 0.596,-0.021c0.192,-0.021 0.405,-0.021 0.596,-0.021c0.128,0 0.234,0 0.362,0.021c0.128,0 0.234,0.021 0.362,0.064c0.064,0.021 0.106,0.043 0.17,0.064c0.064,0.021 0.128,0.043 0.192,0.043c0.085,0 0.17,-0.043 0.234,-0.085c0.085,-0.064 0.149,-0.085 0.192,-0.085c0.021,0 0.021,0 0.021,0.021l0,0.085c0,0.043 0.021,0.064 0.085,0.064c0.021,0 0.064,-0.021 0.064,-0.064c0.021,-0.043 0.064,-0.064 0.128,-0.085c0.043,0.021 0.085,0.043 0.106,0.064c0.043,0.021 0.064,0.043 0.085,0.064c0.021,0.021 0.064,0.043 0.085,0.064c0.043,0 0.106,0.021 0.149,0.021c0.149,0 0.298,-0.021 0.447,-0.043c0.149,-0.021 0.298,-0.043 0.426,-0.043c0.192,0 0.362,0.043 0.532,0.106c0.149,0.064 0.298,0.128 0.447,0.234c0.149,0.085 0.277,0.192 0.405,0.319c0.149,0.106 0.277,0.234 0.405,0.341c0.106,0.085 0.192,0.149 0.298,0.192c0.106,0.043 0.192,0.085 0.277,0.128c0.106,0.043 0.192,0.106 0.277,0.17c0.064,0.064 0.149,0.17 0.213,0.298c0.064,0.149 0.149,0.277 0.234,0.426c0.106,0.128 0.192,0.256 0.277,0.383c0.106,0.128 0.192,0.256 0.277,0.405c0.106,0.128 0.17,0.277 0.256,0.426c0.17,0.405 0.298,0.809 0.362,1.235c0.064,0.447 0.149,0.873 0.213,1.299c0.043,0.17 0.085,0.362 0.128,0.532c0.043,0.192 0.064,0.362 0.064,0.554c0,0.106 -0.021,0.192 -0.064,0.277c-0.021,0.085 -0.043,0.192 -0.043,0.277c0,0.064 0,0.128 0.021,0.17c0.021,0.043 0.043,0.106 0.085,0.149c0.021,0.043 0.043,0.106 0.064,0.17c0.021,0.064 0.043,0.128 0.043,0.213Zm-1.746,-0.703c0,-0.256 -0.043,-0.532 -0.106,-0.788c-0.085,-0.256 -0.192,-0.49 -0.362,-0.703c0.085,-0.085 0.128,-0.17 0.149,-0.277c0.021,-0.106 0.021,-0.213 0.021,-0.298c0,-0.106 -0.021,-0.532 -0.021,-0.618c0,-0.064 -0.021,-0.106 -0.064,-0.149c-0.043,-0.043 -0.064,-0.085 -0.128,-0.128c-0.043,-0.021 -0.085,-0.064 -0.128,-0.106c-0.043,-0.043 -0.085,-0.085 -0.106,-0.149c-0.021,-0.064 -0.043,-0.128 -0.064,-0.17c0,-0.064 -0.021,-0.106 -0.021,-0.149c0,-0.043 -0.021,-0.106 -0.043,-0.17c-0.021,-0.043 -0.064,-0.106 -0.106,-0.192c-0.021,-0.043 -0.064,-0.106 -0.085,-0.149c-0.021,-0.064 -0.021,-0.128 -0.021,-0.192c0,-0.085 0,-0.149 0.021,-0.234c-0.021,-0.043 -0.064,-0.085 -0.128,-0.128c-0.064,-0.043 -0.128,-0.064 -0.213,-0.085c-0.085,-0.043 -0.17,-0.064 -0.277,-0.064c-0.106,0 -0.213,-0.043 -0.319,-0.106c-0.128,-0.064 -0.234,-0.128 -0.362,-0.192c-0.128,-0.085 -0.256,-0.149 -0.383,-0.213c-0.128,-0.064 -0.256,-0.106 -0.383,-0.106c-0.213,0 -0.405,0.021 -0.596,0.064c-0.192,0.021 -0.405,0.064 -0.596,0.085c-0.149,0.021 -0.319,0.043 -0.49,0.043c-0.192,0 -0.362,0.021 -0.511,0.064c-0.149,0.021 -0.298,0.085 -0.383,0.192c-0.106,0.085 -0.17,0.234 -0.17,0.426c0,0.256 0.021,0.49 0.043,0.745c0.043,0.256 0.064,0.511 0.064,0.767c0,0.554 -0.021,1.107 -0.085,1.64c-0.043,0.554 -0.064,1.086 -0.064,1.64c0,0.277 0.021,0.511 0.043,0.767c0.021,0.256 0.043,0.511 0.043,0.788c0,0.341 -0.021,0.66 -0.085,1.001c-0.043,0.341 -0.064,0.681 -0.064,1.001l0,0.447c0,0.17 0,0.319 0.043,0.468c0.021,0.149 0.085,0.277 0.149,0.405c0.085,0.106 0.192,0.192 0.341,0.256c0.213,0.064 0.426,0.149 0.639,0.213c0.213,0.085 0.447,0.106 0.681,0.106c0.128,0 0.277,-0.021 0.405,-0.085c0.128,-0.064 0.256,-0.128 0.405,-0.17c0.085,-0.021 0.532,-0.128 0.639,-0.149c0.106,-0.043 0.213,-0.085 0.319,-0.128c0.106,-0.064 0.192,-0.128 0.256,-0.192c0.106,-0.128 0.213,-0.234 0.298,-0.319c0.106,-0.085 0.234,-0.149 0.405,-0.192c0.085,0 0.149,-0.043 0.17,-0.085c0.021,-0.043 0.043,-0.085 0.043,-0.149c0.021,-0.064 0.021,-0.128 0.043,-0.192c0.021,-0.064 0.064,-0.128 0.149,-0.17c0.106,-0.085 0.192,-0.192 0.256,-0.298c0.043,-0.106 0.085,-0.234 0.128,-0.341c0.021,-0.128 0.043,-0.256 0.064,-0.383c0.021,-0.128 0.043,-0.256 0.085,-0.383c0.064,-0.277 0.149,-0.554 0.256,-0.852c0.106,-0.277 0.149,-0.554 0.149,-0.852c0,-0.085 -0.021,-0.149 -0.043,-0.213c-0.043,-0.043 -0.064,-0.128 -0.064,-0.192c0,-0.043 0.021,-0.064 0.021,-0.085c0.021,0 0.043,-0.021 0.064,-0.043c0.021,-0.021 0.043,-0.043 0.064,-0.064c0.021,-0.043 0.021,-0.106 0.021,-0.213Z" style="fill:#fff;fill-rule:nonzero;"/></g></g><g><g><path d="M27.189,21.618c0,0.064 -0.021,0.149 -0.021,0.256c0,0.085 -0.043,0.17 -0.106,0.192c-0.064,0.043 -0.106,0.106 -0.128,0.192c-0.021,0.085 -0.021,0.149 -0.021,0.234c0,0.085 0,0.17 -0.021,0.234c0,0.064 -0.021,0.085 -0.085,0.085c-0.021,0 -0.043,0 -0.064,-0.021c-0.021,-0.021 -0.064,-0.021 -0.085,-0.021c-0.043,0 -0.085,0.021 -0.106,0.043c-0.043,0.043 -0.064,0.085 -0.064,0.106c0,0.043 0.021,0.064 0.043,0.085c0.021,0.021 0.043,0.043 0.043,0.085c0,0.021 -0.064,0.064 -0.17,0.085c-0.085,0.043 -0.213,0.085 -0.341,0.128c-0.128,0.021 -0.256,0.064 -0.383,0.085c-0.128,0.021 -0.213,0.043 -0.256,0.043c-0.256,0 -0.49,-0.043 -0.745,-0.149c-0.256,-0.085 -0.49,-0.17 -0.724,-0.234c-0.298,-0.106 -0.511,-0.256 -0.639,-0.49c-0.128,-0.213 -0.234,-0.468 -0.298,-0.745c-0.064,-0.277 -0.106,-0.554 -0.128,-0.852c-0.043,-0.298 -0.106,-0.554 -0.17,-0.788c-0.043,-0.085 -0.064,-0.17 -0.064,-0.256c0,-0.064 0.021,-0.128 0.021,-0.17c0.021,-0.043 0.043,-0.085 0.064,-0.106c0.021,-0.043 0.043,-0.064 0.064,-0.085c0.021,-0.021 0.021,-0.043 0.021,-0.085c0,-0.085 -0.021,-0.17 -0.064,-0.234c-0.043,-0.085 -0.064,-0.213 -0.064,-0.341l0,-0.447c0,-0.256 -0.021,-0.468 -0.064,-0.639c-0.043,-0.17 -0.106,-0.319 -0.192,-0.447c-0.085,-0.149 -0.17,-0.277 -0.277,-0.426c-0.106,-0.128 -0.234,-0.298 -0.362,-0.49c-0.064,0 -0.128,0.021 -0.192,0.021l-0.192,0c-0.149,0 -0.277,-0.021 -0.426,-0.021c-0.128,-0.021 -0.277,-0.021 -0.405,-0.021c-0.149,0 -0.298,0 -0.447,0.043c-0.149,0.021 -0.298,0.043 -0.447,0.043c-0.106,0 -0.192,-0.021 -0.298,-0.064c-0.085,-0.021 -0.192,-0.043 -0.277,-0.043c-0.128,0 -0.234,0.021 -0.362,0.064c-0.128,0.064 -0.234,0.106 -0.319,0.192c-0.106,0.085 -0.17,0.17 -0.234,0.277c-0.064,0.106 -0.085,0.234 -0.085,0.362l0,0.319c0,0.618 -0.064,1.214 -0.17,1.789c0,0.085 -0.021,0.17 -0.043,0.256l0,0.277c0,0.298 0.043,0.511 0.17,0.681c0.106,0.192 0.256,0.319 0.405,0.426c0.17,0.106 0.362,0.192 0.554,0.277c0.213,0.064 0.383,0.128 0.554,0.213c0.17,0.064 0.298,0.149 0.426,0.256c0.106,0.106 0.17,0.256 0.17,0.426c0,0.064 -0.021,0.128 -0.043,0.192c-0.021,0.064 -0.043,0.128 -0.085,0.17c-0.085,0.149 -0.17,0.256 -0.256,0.341c-0.085,0.064 -0.17,0.128 -0.256,0.17c-0.106,0.043 -0.192,0.064 -0.319,0.085c-0.106,0.021 -0.234,0.043 -0.383,0.085c-0.128,0.021 -0.234,0.043 -0.362,0.064l-0.383,0c-0.192,0 -0.383,-0.021 -0.575,-0.064c-0.192,-0.043 -0.383,-0.064 -0.575,-0.064c-0.149,0 -0.298,0.021 -0.447,0.043c-0.149,0.021 -0.724,0.128 -0.873,0.17c-0.149,0.021 -0.298,0.021 -0.426,0.021c-0.106,0 -0.213,0 -0.319,-0.021c-0.128,-0.021 -0.234,-0.064 -0.319,-0.106c-0.106,-0.064 -0.192,-0.128 -0.256,-0.213c-0.064,-0.085 -0.085,-0.17 -0.085,-0.298c0,-0.106 0.021,-0.192 0.064,-0.256c0.043,-0.085 0.106,-0.149 0.192,-0.192c0.085,-0.064 0.17,-0.106 0.256,-0.149c0.085,-0.021 0.17,-0.043 0.256,-0.064l0.192,0c0.064,0 0.106,-0.021 0.149,-0.021c0.021,-0.021 0.064,-0.043 0.106,-0.064c0.043,-0.021 0.085,-0.064 0.149,-0.128c0.043,-0.043 0.064,-0.064 0.106,-0.085c0.021,-0.021 0.064,-0.021 0.106,-0.021c0.043,0 0.17,0.021 0.213,0.021c0.064,0 0.106,-0.021 0.17,-0.064c0.149,-0.085 0.256,-0.192 0.319,-0.319c0.064,-0.128 0.085,-0.277 0.106,-0.426c0.021,-0.17 0.043,-0.319 0.043,-0.49c0,-0.17 0.021,-0.319 0.064,-0.447c0.021,-0.17 0.043,-0.298 0.043,-0.426c0,-0.256 -0.021,-0.49 -0.085,-0.724c-0.064,-0.234 -0.085,-0.468 -0.085,-0.724c0,-0.277 0.021,-0.575 0.064,-0.873c0.043,-0.298 0.064,-0.575 0.064,-0.873c0,-0.064 -0.021,-0.362 -0.021,-0.426c0,-0.511 0.043,-1.001 0.106,-1.491c0.064,-0.468 0.085,-0.98 0.085,-1.469l0,-0.405c-0.021,-0.128 -0.021,-0.277 -0.043,-0.405c0,-0.106 -0.021,-0.256 -0.043,-0.405c0,-0.17 -0.021,-0.341 -0.064,-0.511c-0.021,-0.17 -0.064,-0.341 -0.106,-0.511c-0.043,-0.192 -0.106,-0.341 -0.192,-0.468c-0.064,-0.149 -0.17,-0.256 -0.277,-0.341c-0.128,-0.085 -0.256,-0.128 -0.426,-0.128c-0.021,0 -0.17,0.021 -0.213,0.021c-0.064,0 -0.128,-0.021 -0.192,-0.064c-0.043,-0.043 -0.085,-0.106 -0.106,-0.17c-0.021,-0.064 -0.043,-0.128 -0.064,-0.213l0,-0.192c0,-0.234 0.043,-0.405 0.17,-0.532c0.128,-0.106 0.277,-0.17 0.447,-0.213c0.17,-0.043 0.362,-0.064 0.575,-0.064c0.213,0 0.383,0 0.554,-0.021c0.17,0 0.341,-0.043 0.532,-0.085c0.17,-0.043 0.362,-0.085 0.532,-0.085c0.277,0 0.554,0.043 0.809,0.106c0.256,0.085 0.532,0.106 0.809,0.106c0.213,0 0.426,-0.021 0.639,-0.064c0.213,-0.021 0.405,-0.085 0.618,-0.149c0.106,-0.043 0.192,-0.064 0.277,-0.064c0.277,0 0.554,0.043 0.809,0.106c0.256,0.085 0.532,0.128 0.788,0.128c0.192,0.021 0.362,0.043 0.554,0.106c0.213,0.043 0.383,0.128 0.554,0.213c0.17,0.085 0.319,0.213 0.447,0.362c0.128,0.149 0.192,0.319 0.234,0.511c0.021,0.106 0.064,0.234 0.149,0.341c0.064,0.106 0.149,0.192 0.234,0.277c0.085,0.085 0.17,0.17 0.234,0.256c0.064,0.064 0.106,0.128 0.106,0.17c0,0.043 -0.021,0.085 -0.064,0.106c-0.064,0.021 -0.085,0.064 -0.085,0.128c0,0.043 0.021,0.064 0.085,0.106c0.043,0.043 0.085,0.106 0.149,0.149c0.043,0.064 0.106,0.128 0.149,0.192c0.043,0.064 0.064,0.128 0.064,0.213c0,0.106 -0.043,0.192 -0.106,0.277c-0.064,0.064 -0.085,0.17 -0.085,0.277l0.021,0.021l0.128,-0.043l0.021,0.021c0.043,0.106 0.043,0.234 0.043,0.341l0,0.341c0,0.128 0,0.277 -0.021,0.426c0,0.17 -0.021,0.319 -0.043,0.468c-0.021,0.149 -0.064,0.298 -0.128,0.426c-0.064,0.128 -0.128,0.234 -0.234,0.319c-0.064,0.043 -0.128,0.085 -0.192,0.106c-0.064,0.021 -0.128,0.043 -0.192,0.085c-0.064,0.021 -0.128,0.064 -0.17,0.128c-0.043,0.043 -0.085,0.106 -0.106,0.192c-0.043,0.106 -0.106,0.234 -0.192,0.319c-0.085,0.106 -0.17,0.213 -0.256,0.319c-0.085,0.106 -0.149,0.192 -0.213,0.298c-0.064,0.106 -0.106,0.234 -0.106,0.341c0,0.213 0.043,0.405 0.149,0.575c0.085,0.17 0.17,0.341 0.256,0.532c0.064,0.17 0.128,0.362 0.149,0.554c0.043,0.192 0.064,0.383 0.085,0.575c0.021,0.192 0.021,0.405 0.043,0.596c0,0.192 0.021,0.383 0.064,0.575c0,0.085 0.043,0.213 0.085,0.405c0.064,0.192 0.128,0.383 0.192,0.575c0.085,0.213 0.17,0.383 0.277,0.511c0.085,0.149 0.192,0.234 0.298,0.234c0.085,0 0.149,-0.064 0.213,-0.149c0.064,-0.106 0.106,-0.213 0.149,-0.341c0.064,-0.128 0.128,-0.234 0.192,-0.362c0.064,-0.106 0.149,-0.192 0.256,-0.234c0.213,0.021 0.405,0.064 0.532,0.128c0.149,0.064 0.256,0.149 0.341,0.256c0.064,0.106 0.128,0.234 0.149,0.383c0.043,0.17 0.064,0.341 0.064,0.554Zm-3.109,-9.561c0,-0.106 -0.021,-0.213 -0.064,-0.341c-0.043,-0.128 -0.106,-0.256 -0.17,-0.405c-0.064,-0.128 -0.128,-0.256 -0.192,-0.362c-0.085,-0.128 -0.149,-0.213 -0.213,-0.298c-0.149,0 -0.256,0 -0.298,-0.021c-0.043,-0.021 -0.085,-0.043 -0.085,-0.085c-0.021,-0.021 -0.043,-0.064 -0.064,-0.106c0,-0.043 -0.064,-0.085 -0.149,-0.128c-0.234,-0.106 -0.447,-0.213 -0.639,-0.277c-0.192,-0.064 -0.426,-0.085 -0.703,-0.085c-0.085,0 -0.149,0.021 -0.234,0.064c-0.064,0.043 -0.128,0.064 -0.192,0.064c-0.149,0 -0.298,-0.021 -0.468,-0.064c-0.149,-0.043 -0.298,-0.064 -0.468,-0.064c-0.213,0 -0.447,0.043 -0.703,0.085c-0.149,0.043 -0.319,0.085 -0.468,0.128c-0.17,0.021 -0.298,0.085 -0.426,0.149c-0.128,0.064 -0.234,0.17 -0.319,0.277c-0.064,0.128 -0.106,0.277 -0.106,0.49c0,0.213 0.021,0.426 0.064,0.639c0.043,0.213 0.064,0.426 0.064,0.639c0,0.106 -0.021,0.192 -0.043,0.298c-0.043,0.106 -0.17,0.468 -0.192,0.575c-0.043,0.085 -0.064,0.192 -0.064,0.298c0,0.128 0.021,0.256 0.043,0.383c0.021,0.128 0.064,0.234 0.128,0.341c0.064,0.106 0.149,0.17 0.256,0.234c0.085,0.064 0.213,0.106 0.383,0.106c0.128,0 0.277,-0.043 0.405,-0.085c0.128,-0.064 0.277,-0.106 0.426,-0.106c0.064,0 0.149,0.021 0.213,0.064c0.064,0.043 0.128,0.085 0.213,0.128c0.064,0.043 0.128,0.085 0.213,0.106c0.064,0.043 0.149,0.064 0.256,0.064c0.064,0 0.128,0 0.192,-0.021c0.064,-0.021 0.128,-0.043 0.17,-0.064c0.277,-0.128 0.554,-0.234 0.83,-0.319c0.298,-0.106 0.596,-0.149 0.894,-0.149c0.064,0 0.17,-0.043 0.256,-0.128c0.106,-0.085 0.213,-0.192 0.341,-0.341c0.106,-0.128 0.213,-0.277 0.319,-0.447c0.106,-0.149 0.213,-0.319 0.298,-0.468c0.085,-0.17 0.149,-0.319 0.213,-0.447c0.043,-0.149 0.085,-0.256 0.085,-0.319Z" style="fill:#fff;fill-rule:nonzero;"/></g></g></g></svg>